<svg width="78" height="25" viewBox="0 0 78 25" fill="none" xmlns="http://www.w3.org/2000/svg">
<g clip-path="url(#clip0_2713_1482)">
<path d="M48.058 19.0298C43.5741 22.3348 37.0749 24.0981 31.4792 24.0981C23.6332 24.0981 16.5697 21.1962 11.2259 16.3696C10.8061 15.9901 11.1822 15.4728 11.6861 15.7684C17.453 19.1238 24.5837 21.1424 31.9494 21.1424C36.917 21.1424 42.3817 20.1146 47.4064 17.9818C48.1655 17.6594 48.8003 18.4789 48.058 19.0298Z" fill="black"/>
<path d="M49.9219 16.897C49.3509 16.1648 46.1333 16.5511 44.689 16.7224C44.249 16.7761 44.1818 16.3932 44.5781 16.1178C47.1409 14.3142 51.346 14.8348 51.8364 15.4393C52.3268 16.0473 51.7088 20.2625 49.3006 22.2744C48.9311 22.5834 48.5784 22.4188 48.743 22.0091C49.2838 20.6589 50.4963 17.6326 49.9219 16.897Z" fill="black"/>
<path d="M44.7905 3.38461V1.63134C44.7905 1.366 44.992 1.18799 45.2338 1.18799H53.0832C53.3351 1.18799 53.5367 1.36936 53.5367 1.63134V3.13271C53.5333 3.38461 53.3217 3.71377 52.9455 4.23438L48.8781 10.0417C50.3895 10.0047 51.9849 10.2298 53.3553 11.0023C53.6643 11.1769 53.7483 11.4322 53.7718 11.6841V13.5549C53.7718 13.8102 53.4896 14.1091 53.1941 13.9546C50.7791 12.6884 47.5715 12.5507 44.9013 13.9681C44.6292 14.1158 44.3438 13.8203 44.3438 13.565V11.7882C44.3438 11.5027 44.3471 11.0157 44.6326 10.5824L49.3449 3.82461H45.2439C44.992 3.82461 44.7905 3.6466 44.7905 3.38461Z" fill="black"/>
<path d="M16.1564 14.324H13.7684C13.54 14.3072 13.3586 14.1359 13.3418 13.9176V1.66151C13.3418 1.41632 13.5467 1.22152 13.8019 1.22152H16.0288C16.2606 1.23159 16.4453 1.40961 16.4621 1.63128V3.23341H16.5057C17.0868 1.68502 18.1784 0.962891 19.6495 0.962891C21.1442 0.962891 22.0779 1.68502 22.7497 3.23341C23.3274 1.68502 24.6407 0.962891 26.048 0.962891C27.0489 0.962891 28.1438 1.37602 28.8122 2.30303C29.568 3.33417 29.4134 4.83218 29.4134 6.14546L29.4101 13.8807C29.4101 14.1259 29.2052 14.324 28.9499 14.324H26.5652C26.3268 14.3072 26.1353 14.1158 26.1353 13.8807V7.38484C26.1353 6.86759 26.1823 5.57782 26.0681 5.08744C25.8901 4.26455 25.3561 4.03279 24.6642 4.03279C24.0865 4.03279 23.4819 4.41905 23.2367 5.03706C22.9915 5.65508 23.015 6.68957 23.015 7.38484V13.8807C23.015 14.1259 22.8101 14.324 22.5549 14.324H20.1702C19.9283 14.3072 19.7402 14.1158 19.7402 13.8807L19.7369 7.38484C19.7369 6.01782 19.9619 4.00593 18.2657 4.00593C16.5494 4.00593 16.6166 5.96744 16.6166 7.38484V13.8807C16.6166 14.1259 16.4117 14.324 16.1564 14.324Z" fill="black"/>
<path d="M60.2939 0.962891C63.8374 0.962891 65.7553 4.00592 65.7553 7.87521C65.7553 11.6135 63.6359 14.5793 60.2939 14.5793C56.8143 14.5793 54.9199 11.5363 54.9199 7.74422C54.9199 3.92867 56.8378 0.962891 60.2939 0.962891ZM60.3141 3.46517C58.5541 3.46517 58.4433 5.86332 58.4433 7.35797C58.4433 8.85597 58.4198 12.0535 60.2939 12.0535C62.1446 12.0535 62.2319 9.47398 62.2319 7.90208C62.2319 6.86759 62.1883 5.63156 61.8759 4.65081C61.6072 3.79768 61.0732 3.46517 60.3141 3.46517Z" fill="black"/>
<path d="M70.3503 14.3243H67.9723C67.7339 14.3075 67.5424 14.116 67.5424 13.8809L67.5391 1.62145C67.5592 1.39641 67.7574 1.22176 67.9992 1.22176H70.2126C70.4209 1.23183 70.5922 1.3729 70.6392 1.56435V3.43854H70.6829C71.3513 1.76252 72.2883 0.963135 73.9375 0.963135C75.0089 0.963135 76.0535 1.34939 76.7253 2.4074C77.35 3.38816 77.35 5.03731 77.35 6.22295V13.938C77.3231 14.153 77.125 14.3243 76.8898 14.3243H74.495C74.2767 14.3075 74.0954 14.1463 74.0718 13.938V7.28096C74.0718 5.94081 74.2263 3.9793 72.5772 3.9793C71.9961 3.9793 71.4621 4.36892 71.1967 4.96006C70.8609 5.70906 70.8172 6.45471 70.8172 7.28096V13.8809C70.8139 14.1261 70.6056 14.3243 70.3503 14.3243Z" fill="black"/>
<path d="M38.5327 8.46984V7.95259C36.8063 7.95259 34.9825 8.32205 34.9825 10.3575C34.9825 11.3886 35.5165 12.0872 36.4335 12.0872C37.1052 12.0872 37.7064 11.6741 38.086 11.0023C38.5562 10.1761 38.5327 9.40021 38.5327 8.46984ZM40.9409 14.2906C40.7831 14.4316 40.5547 14.4417 40.3766 14.3477C39.584 13.6893 39.4429 13.3837 39.0063 12.7556C37.6964 14.0924 36.7693 14.4921 35.0698 14.4921C33.0613 14.4921 31.4961 13.2527 31.4961 10.7706C31.4961 8.83259 32.5474 7.51259 34.042 6.86771C35.3385 6.29672 37.1489 6.19596 38.5327 6.0381V5.72909C38.5327 5.16146 38.5764 4.48971 38.2438 3.99933C37.9516 3.55933 37.3941 3.37796 36.9037 3.37796C35.9935 3.37796 35.1806 3.84483 34.9825 4.81215C34.9422 5.02711 34.7843 5.23871 34.5694 5.24879L32.2518 5.00024C32.057 4.95658 31.842 4.79872 31.8958 4.49979C32.4298 1.69187 34.9657 0.845459 37.2362 0.845459C38.3983 0.845459 39.9165 1.15446 40.8334 2.03446C41.9956 3.11934 41.8847 4.56696 41.8847 6.14222V9.86372C41.8847 10.9822 42.3482 11.4726 42.7849 12.0771C42.9394 12.2921 42.973 12.5507 42.7782 12.7119C42.2911 13.1184 41.4246 13.8741 40.9476 14.2973L40.9409 14.2906Z" fill="black"/>
<path d="M7.22605 8.46984V7.95259C5.49965 7.95259 3.67584 8.32205 3.67584 10.3575C3.67584 11.3886 4.20988 12.0872 5.12683 12.0872C5.79858 12.0872 6.39979 11.6741 6.77934 11.0023C7.24956 10.1761 7.22605 9.40021 7.22605 8.46984ZM9.63428 14.2906C9.47642 14.4316 9.24802 14.4417 9.07001 14.3477C8.27734 13.6893 8.13627 13.3837 7.69963 12.7556C6.38972 14.0924 5.4627 14.4921 3.76317 14.4921C1.75463 14.4921 0.189453 13.2527 0.189453 10.7706C0.189453 8.83259 1.24074 7.51259 2.73539 6.86771C4.03187 6.29672 5.84224 6.19596 7.22605 6.0381V5.72909C7.22605 5.16146 7.26971 4.48971 6.9372 3.99933C6.64498 3.55933 6.08743 3.37796 5.59705 3.37796C4.68683 3.37796 3.87401 3.84483 3.67584 4.81215C3.63554 5.02711 3.47768 5.23871 3.26272 5.24879L0.945174 5.00024C0.750365 4.95658 0.535405 4.79872 0.589145 4.49979C1.12319 1.69187 3.65905 0.845459 5.92957 0.845459C7.0917 0.845459 8.60986 1.15446 9.5268 2.03446C10.6889 3.11934 10.5781 4.56696 10.5781 6.14222V9.86372C10.5781 10.9822 11.0416 11.4726 11.4782 12.0771C11.6327 12.2921 11.6663 12.5507 11.4715 12.7119C10.9845 13.1184 10.1179 13.8741 9.641 14.2973L9.63428 14.2906Z" fill="black"/>
</g>
<defs>
<clipPath id="clip0_2713_1482">
<rect width="77.253" height="23.3168" fill="white" transform="translate(0.142578 0.813965)"/>
</clipPath>
</defs>
</svg>
