<svg width="105" height="23" viewBox="0 0 105 23" fill="none" xmlns="http://www.w3.org/2000/svg">
<g clip-path="url(#clip0_2713_1501)">
<path d="M77.2445 4.12447C76.761 4.12447 76.3638 3.95179 76.0185 3.62368C75.6731 3.2783 75.5177 2.88112 75.5177 2.39759C75.5177 1.91406 75.6903 1.49961 76.0357 1.1715C76.3811 0.843392 76.7783 0.670703 77.2618 0.670703C77.7281 0.670703 78.1253 0.843392 78.4534 1.1715C78.7987 1.51688 78.9714 1.91406 78.9714 2.38032C78.9714 2.84658 78.7987 3.26103 78.4706 3.60641C78.1425 3.96905 77.7281 4.12447 77.2445 4.12447ZM34.5041 16.299L30.0142 0.843392H23.9183V1.84499H24.5055C24.9717 1.84499 25.3344 1.87952 25.5761 1.96587C25.9906 2.10402 26.2669 2.41486 26.3878 2.91565C26.4568 3.14015 26.4741 3.62368 26.4741 4.34897V16.5408C26.4741 17.6805 26.4396 18.4922 26.3705 18.9584C26.2669 19.5801 26.0424 20.0464 25.697 20.3572C25.3344 20.6853 24.9026 20.8407 24.4191 20.8407H23.9183V21.8596H30.4287V20.8407H30.0142C28.8745 20.8407 28.1492 20.2881 27.8384 19.2002C27.7347 18.803 27.6829 17.905 27.6829 16.5408V2.74297L33.2262 21.8596H34.1933L39.7539 2.74297V17.7496C39.7539 18.4576 39.7193 19.0448 39.6675 19.4938C39.633 19.8737 39.4948 20.1672 39.2876 20.3745C38.9595 20.6853 38.4069 20.858 37.6125 20.858H37.3535V21.8769H45.2626V20.858H44.8309C43.743 20.858 43.0868 20.5299 42.8623 19.8909C42.7414 19.5456 42.6896 18.8375 42.6896 17.7669V4.97065C42.6896 4.26262 42.7241 3.67548 42.7759 3.20922C42.8104 2.84658 42.9486 2.55301 43.1558 2.34578C43.4667 2.01767 44.0365 1.86225 44.8136 1.86225H45.2454V0.843392H39.0976L34.5041 16.299ZM51.9802 6.90476C53.9489 6.90476 55.5376 7.68186 56.7637 9.23605C57.8344 10.583 58.3697 12.379 58.3697 14.5721C58.3697 16.8171 57.8344 18.613 56.7637 19.9773C55.5549 21.5315 53.9316 22.3086 51.8939 22.3086C49.977 22.3086 48.4056 21.5315 47.1967 19.9773C46.1261 18.613 45.5907 16.8171 45.5907 14.6067C45.5907 12.379 46.1261 10.583 47.1967 9.23605C48.4056 7.68186 49.9943 6.90476 51.9802 6.90476ZM51.9802 21.2897C54.1906 21.2897 55.2958 19.0448 55.2958 14.5376C55.2958 12.4653 55.0541 10.8939 54.5705 9.80593C54.277 9.13244 53.828 8.63164 53.2581 8.269C52.8609 8.02723 52.4465 7.90635 51.9802 7.90635C51.2549 7.90635 50.616 8.19992 50.0634 8.78706C49.1308 9.75412 48.6646 11.6364 48.6646 14.434C48.6646 16.748 48.9582 18.5094 49.528 19.701C50.0288 20.7716 50.8405 21.2897 51.9802 21.2897ZM67.3668 7.04291C68.8864 7.04291 70.1298 7.57824 71.1141 8.66618C72.3747 10.065 73.0137 11.9645 73.0137 14.3476C73.0137 16.6271 72.4438 18.5094 71.3213 20.0464C70.2679 21.4797 68.8691 22.1877 67.1423 22.1877C66.2097 22.1877 65.3463 21.9287 64.5692 21.4279C64.3965 21.3243 64.0511 21.0479 63.5158 20.6162C63.3086 20.4435 63.1359 20.3745 62.9805 20.3745C62.7905 20.3745 62.5833 20.5299 62.3588 20.858C62.1516 21.1516 61.9271 21.4797 61.7026 21.8596H60.6492C60.7528 21.566 60.8046 21.3761 60.8219 21.3243C60.9082 20.9098 60.96 20.0464 60.96 18.7512V4.31443C60.96 3.17469 60.8391 2.46666 60.5801 2.19036C60.3729 1.93133 59.9584 1.81045 59.354 1.81045H59.1295V0.843392L63.6194 0.636165V9.40874C63.8784 8.80433 64.2238 8.33807 64.6555 7.9927C65.4326 7.35375 66.3306 7.04291 67.3668 7.04291ZM66.7969 21.0825C68.8864 21.0825 69.9225 18.8548 69.9225 14.4167C69.9225 12.379 69.6635 10.8075 69.1454 9.70231C68.6446 8.68345 67.9194 8.16539 66.935 8.16539C66.2443 8.16539 65.6053 8.42442 65.0009 8.95975C63.8957 9.97861 63.3431 11.8091 63.3431 14.4685C63.3431 16.5235 63.6021 18.1122 64.1202 19.2347C64.3965 19.8219 64.7937 20.3054 65.329 20.6508C65.778 20.9271 66.2616 21.0825 66.7969 21.0825ZM99.1587 19.7873C99.5559 19.3211 99.9531 18.6648 100.368 17.8359L101.3 18.3367C99.9704 20.9961 98.1917 22.3258 95.9467 22.3258C94.2889 22.3258 92.9419 21.756 91.8713 20.6335C90.5588 19.2347 89.9026 17.197 89.9026 14.5376C89.9026 12.1027 90.5588 10.134 91.8713 8.66618C92.9074 7.50917 94.1507 6.92203 95.6186 6.92203C97.7772 6.92203 99.4178 8.00997 100.506 10.1858C101.093 11.3429 101.421 12.7934 101.473 14.5203H92.8556C92.8728 16.558 93.0801 18.0604 93.4945 19.0275C94.0644 20.409 95.0487 21.0998 96.4475 21.0998C97.5182 21.0825 98.4161 20.6508 99.1587 19.7873ZM93.1837 10.7212C92.9765 11.4465 92.8728 12.3444 92.8556 13.3806H98.537C98.537 12.1027 98.3989 11.032 98.1226 10.2031C97.6218 8.73526 96.8274 7.9927 95.7568 7.9927C94.5479 8.00997 93.6845 8.92521 93.1837 10.7212ZM87.1914 20.5126C86.9324 20.219 86.8115 19.4938 86.8115 18.3367V0.618896L82.1834 0.826123V1.79318H82.5288C83.1159 1.79318 83.5304 1.91406 83.7376 2.17309C83.9967 2.46666 84.1175 3.17469 84.1175 4.31443V18.3195C84.1175 19.4765 83.9967 20.1845 83.7376 20.4953C83.5131 20.7544 83.1159 20.8753 82.5288 20.8753H82.028V21.8423H88.9183V20.8753H88.4175C87.8303 20.8925 87.4159 20.7544 87.1914 20.5126ZM79.1959 20.5126C78.9369 20.219 78.816 19.4938 78.816 18.3367V7.12925L74.188 7.33648V8.3208H74.5506C75.1377 8.3208 75.5522 8.44169 75.7767 8.68345C76.0357 8.97702 76.1566 9.68504 76.1566 10.8248V18.3195C76.1566 19.4765 76.0357 20.1845 75.7767 20.4953C75.5522 20.7544 75.155 20.8753 74.5506 20.8753H74.0498V21.8423H80.9401V20.8753H80.4393C79.8176 20.8925 79.4204 20.7544 79.1959 20.5126ZM13.6952 10.5139V14.7794H17.9606V10.5139H15.7502H13.6952ZM0.933479 0.843392L0.726253 8.269L1.84873 8.45896C2.05595 6.26581 2.62583 4.64254 3.57561 3.58914C4.55994 2.48393 5.92418 1.89679 7.66833 1.86225V17.387C7.66833 18.7512 7.47837 19.6146 7.08119 20.0291C6.75308 20.3745 6.18321 20.5817 5.37157 20.668C5.12981 20.6853 4.73263 20.7026 4.16275 20.7026V21.8941H14.5413V20.7026C13.9715 20.7026 13.557 20.6853 13.3325 20.668C12.5381 20.5817 11.9683 20.3745 11.6229 20.0291C11.2257 19.6146 11.0358 18.7512 11.0358 17.387V1.86225C12.7799 1.91406 14.1442 2.48393 15.1457 3.58914C16.0783 4.64254 16.6654 6.26581 16.8726 8.45896L17.9951 8.269L17.7879 0.843392H0.933479ZM4.97439 10.5139H2.86759H0.708984V14.7794H4.97439V10.5139ZM102.181 8.59711V7.12925H102.647V6.90476H101.473V7.12925H101.939V8.59711H102.181ZM103.079 8.59711V7.28467L103.476 8.59711H103.735L104.115 7.2674V8.59711H104.339V6.90476H104.011L103.597 8.269L103.182 6.90476H102.854V8.59711H103.079Z" fill="black"/>
</g>
<defs>
<clipPath id="clip0_2713_1501">
<rect width="103.63" height="21.7069" fill="white" transform="translate(0.708984 0.618896)"/>
</clipPath>
</defs>
</svg>
