<svg width="65" height="19" viewBox="0 0 65 19" fill="none" xmlns="http://www.w3.org/2000/svg">
<g clip-path="url(#clip0_2713_1499)">
<path d="M1.1841 1.56173L0.0270818 1.23362V0.40472H4.55152C7.5045 0.40472 8.57516 1.35451 8.57516 3.56492C8.57516 5.63718 7.36634 6.72512 5.03505 6.72512H3.20455V10.058L4.36156 10.3861V11.215H-0.0419922V10.4207L1.16682 10.0925V1.56173H1.1841ZM3.22182 1.56173V5.75806L5.38043 5.58538C5.91576 5.34361 6.46837 4.99823 6.46837 3.66853C6.46837 2.6324 6.43383 1.54446 4.43064 1.54446H3.22182V1.56173ZM25.4468 6.62151H23.9962V10.1098L25.1533 10.4379V11.1805H20.6979V10.3861L21.9067 10.058V1.54446L20.7497 1.21636V0.387451H25.4814C28.3135 0.387451 29.2978 1.38904 29.2978 3.28862C29.2978 4.79101 28.7107 5.53357 27.3809 6.0689L29.3841 9.97166L30.6793 10.3861V11.1805H27.6918L25.4468 6.62151ZM23.9962 1.56173V5.67172L26.2067 5.49903C26.9147 5.17092 27.2428 4.58378 27.2428 3.46131C27.2428 2.25249 26.8629 1.50993 25.6195 1.50993L23.9962 1.56173ZM31.6118 10.4552L32.7688 10.1271V1.56173L31.6118 1.23362V0.40472H36.8443C39.7973 0.40472 41.5414 2.18341 41.5414 5.68899C41.5414 9.64356 39.7627 11.215 36.637 11.215H31.6118V10.4552ZM34.8411 1.56173V10.1271H36.378C37.466 10.1271 39.2792 9.95439 39.2792 6.05163C39.2792 2.97778 38.7439 1.56173 36.378 1.56173H34.8411ZM4.55152 16.8619C4.55152 18.1916 3.80896 18.6406 2.54833 18.6406C1.30498 18.6406 0.545147 17.8981 0.545147 16.8619V14.2371L-0.0419922 14.0644V13.5636H2.25477V14.0644L1.71943 14.2371V16.8619C1.71943 17.5354 1.96119 17.8981 2.72102 17.8981C3.10094 17.8981 3.72261 17.7772 3.72261 16.8101V14.1853L3.13548 14.0126V13.5118H5.13866V14.0126L4.55152 14.1853V16.8619ZM8.54063 15.4804V17.8981L9.07596 18.0708V18.5716H7.12458V18.0708L7.71172 17.8981V14.4443L7.46996 14.1507L7.14185 14.0298V13.4945H8.43701L10.8892 16.5684V14.1507L10.302 13.978V13.4772H12.2534V13.978L11.6663 14.1507V18.5197H10.9928L8.54063 15.4804ZM16.4325 17.9326L17.0196 18.1053V18.6061H14.6883V18.1053L15.2755 17.9326V14.2371L14.6883 14.0644V13.5636H17.0196V14.0644L16.4325 14.2371V17.9326ZM47.5682 17.9326L48.1554 18.1053V18.6061H45.8241V18.1053L46.4112 17.9326V14.2371L45.8241 14.0644V13.5636H48.1554V14.0644L47.5682 14.2371V17.9326ZM22.2866 18.5543H21.1987L19.6272 14.1853L19.0401 14.0126V13.5118H21.4923V14.0126L20.9051 14.1853L21.9931 17.3109L23.081 14.1853L22.4939 14.0126V13.5118H24.497V14.0126L23.9099 14.1853L22.2866 18.5543ZM26.8629 14.2371L26.2757 14.0644V13.5636H30.2303L30.2648 15.1005H29.6777L29.3841 14.2198H28.0544V15.6358H29.3496V16.3439H28.0544V17.9153H29.3841L29.7986 17.0346H30.4203L30.3339 18.5716H26.3103V18.0708L26.8974 17.9499V14.2025H26.8629V14.2371ZM35.1347 16.5166H34.7202V17.9326L35.3074 18.1053V18.6061H32.9761V18.1053L33.5632 17.9326V14.2371L32.9761 14.0644V13.5636H35.2555C36.6716 13.5636 37.086 14.0989 37.086 14.9796C37.086 15.515 36.9652 16.0676 36.2571 16.3093L37.086 17.9326L37.7941 18.1398V18.5888H36.1017L35.1347 16.5166ZM34.7202 14.2371V15.9812L35.5146 15.8949C35.7563 15.6877 35.929 15.3595 35.929 15.0142C35.929 14.5134 35.8081 14.1853 35.2555 14.1853H34.7202V14.2371ZM39.8318 17.0174H40.5398L40.7125 17.7254C41.0406 17.9326 41.4205 18.0189 41.8004 18.0189C41.835 18.0189 41.9213 18.0189 41.9731 18.0189C42.1803 17.8981 42.2667 17.639 42.3012 17.3973C42.3012 16.2403 39.8836 16.7238 39.8836 15.0314C39.8836 14.2371 40.5916 13.4945 41.8004 13.4945C42.2494 13.4945 42.7502 13.6154 43.1647 13.8226V15.1523H42.4912L42.2494 14.3234C42.0077 14.2371 41.7141 14.1507 41.4205 14.1507C41.386 14.1507 41.3342 14.1507 41.2996 14.1507C41.0924 14.2716 40.9715 14.4788 40.9715 14.7379C40.9715 15.7395 43.3374 15.4114 43.3374 17.0692C43.3374 17.9844 42.5085 18.6406 41.4205 18.6406C40.8852 18.6406 40.3326 18.4679 39.8836 18.1916L39.8318 17.0174ZM52.1445 14.2371H51.471L51.1774 15.1178H50.5557V13.5463H54.9593V15.1178H54.3376L54.044 14.2371H53.336V17.9326L53.9232 18.1053V18.6061H51.5919V18.1053L52.179 17.9326V14.2371H52.1445ZM58.8621 16.6374L57.5324 14.2198L56.9452 14.0471V13.5463H59.4147V14.0471L58.8275 14.2198L59.6564 15.8431L60.4853 14.2198L59.8982 14.0471V13.5463H61.9014V14.0471L61.3142 14.2198L59.9845 16.6374V17.9326L60.5717 18.1053V18.6061H58.2404V18.1053L58.8275 17.9326V16.6374H58.8621ZM61.0379 8.08936L60.2436 10.0925H56.8761V6.22432H58.793L59.0347 7.31226H59.8636V4.03118H59.0347L58.793 5.11912H56.8761V1.579H60.1227L60.7098 3.65126H61.9186L61.8323 0.40472H53.6469V1.23362L54.8039 1.56173V10.1271L53.5951 10.4552V11.1978H61.9877L62.1604 8.07209H61.0379V8.08936ZM18.6774 7.50222C18.6774 10.248 17.3477 11.3704 14.6883 11.3704C12.2362 11.3704 10.4575 10.3688 10.4575 7.76125V1.56173L9.24865 1.23362V0.40472H13.6522V1.23362L12.4952 1.56173V7.76125C12.4952 9.33272 13.2032 10.0062 14.9474 10.0062C16.1562 10.0062 17.2269 9.29818 17.2269 7.64037V1.579L16.018 1.25089V0.421989H19.8345V1.25089L18.6774 1.579V7.50222ZM51.5055 7.50222C51.5055 10.248 50.1758 11.3704 47.5164 11.3704C45.0642 11.3704 43.2337 10.3688 43.2337 7.76125V1.56173L42.0767 1.23362V0.40472H46.4803V1.23362L45.3233 1.56173V7.76125C45.3233 9.33272 46.0313 10.0062 47.7755 10.0062C48.9843 10.0062 50.0549 9.29818 50.0549 7.64037V1.579L48.8979 1.25089V0.421989H52.7143V1.25089L51.5573 1.579V7.51949L51.5055 7.50222ZM63.3174 18.5543C62.7303 18.5543 62.2295 18.0535 62.2295 17.4663C62.2295 16.8792 62.7303 16.3784 63.3174 16.3784C63.9046 16.3784 64.4054 16.8792 64.4054 17.4663C64.3881 18.0535 63.9046 18.5543 63.3174 18.5543ZM63.3174 16.6374C62.8684 16.6374 62.4367 17.0174 62.4367 17.5182C62.4367 17.9671 62.8166 18.3989 63.3174 18.3989C63.7664 18.3989 64.1981 18.0189 64.1981 17.5182C64.1809 17.0174 63.7664 16.6374 63.3174 16.6374ZM63.1965 17.5527V17.9671H62.9893V16.9655H63.4383C63.6455 16.9655 63.7664 17.0864 63.7664 17.2591C63.7664 17.3455 63.7319 17.4663 63.5937 17.5009C63.6283 17.5009 63.7146 17.5872 63.7146 17.7426V17.7772C63.7146 17.8635 63.7146 17.8981 63.7146 17.9844H63.5074C63.5074 17.8981 63.4728 17.8117 63.5074 17.7772C63.5074 17.6563 63.4728 17.6045 63.3002 17.6045L63.1965 17.5527ZM63.1965 17.3973H63.3692C63.4901 17.3973 63.5419 17.3627 63.5419 17.2764C63.5419 17.19 63.5074 17.1555 63.3692 17.1555H63.1965V17.3973Z" fill="black"/>
</g>
<defs>
<clipPath id="clip0_2713_1499">
<rect width="64.2508" height="18.6535" fill="white" transform="translate(0.15332 0.145508)"/>
</clipPath>
</defs>
</svg>
