<svg width="105" height="23" viewBox="0 0 105 23" fill="none" xmlns="http://www.w3.org/2000/svg">
<g clip-path="url(#clip0_2713_1493)">
<path d="M104.372 10.4189V8.59641H102.108V5.76312L102.032 5.78657L99.9065 6.43698L99.8646 6.44971V8.59651H96.5094V7.40056C96.5094 6.84368 96.6339 6.41753 96.8793 6.13333C97.123 5.85254 97.4716 5.70978 97.9162 5.70978C98.2357 5.70978 98.5667 5.78507 98.8997 5.93354L98.9832 5.97083V4.05149L98.9439 4.03705C98.6332 3.92538 98.2107 3.86914 97.6869 3.86914C97.0268 3.86914 96.427 4.0128 95.9039 4.2975C95.3805 4.5826 94.9688 4.98961 94.6804 5.50708C94.393 6.02396 94.2471 6.62093 94.2471 7.28156V8.59641H92.6712V10.4189H94.2471V18.0968H96.5094V10.4189H99.8646V15.298C99.8646 17.3075 100.812 18.3258 102.682 18.3258C102.989 18.3258 103.312 18.2898 103.642 18.2194C103.978 18.147 104.207 18.0747 104.342 17.9975L104.372 17.9799V16.1405L104.28 16.2014C104.157 16.2832 104.004 16.35 103.825 16.3998C103.645 16.4504 103.494 16.4758 103.378 16.4758C102.94 16.4758 102.616 16.3578 102.415 16.1249C102.212 15.8899 102.109 15.479 102.109 14.9042V10.4189H104.372ZM87.6191 16.4761C86.798 16.4761 86.1506 16.2038 85.6944 15.6675C85.2354 15.1284 85.0028 14.3599 85.0028 13.3835C85.0028 12.3761 85.2354 11.5877 85.6946 11.0391C86.1511 10.4942 86.7923 10.2176 87.6007 10.2176C88.3851 10.2176 89.0096 10.4818 89.4569 11.0031C89.9064 11.5272 90.1345 12.3094 90.1345 13.3285C90.1345 14.3601 89.92 15.1526 89.497 15.6827C89.0768 16.2088 88.4451 16.4761 87.6191 16.4761ZM87.7197 8.36754C86.1531 8.36754 84.9089 8.82658 84.0217 9.73191C83.1351 10.6373 82.6856 11.8903 82.6856 13.4564C82.6856 14.9439 83.1243 16.1403 83.9899 17.012C84.8554 17.8839 86.0333 18.3256 87.4906 18.3256C89.0092 18.3256 90.2287 17.8602 91.1155 16.9423C92.0022 16.0254 92.4514 14.7843 92.4514 13.2548C92.4514 11.7441 92.0298 10.5387 91.1981 9.67287C90.3659 8.80663 89.1954 8.36754 87.7197 8.36754ZM79.0381 8.36754C77.9724 8.36754 77.091 8.64012 76.4176 9.17754C75.7401 9.71818 75.3965 10.4272 75.3965 11.2852C75.3965 11.7312 75.4707 12.1274 75.6166 12.4635C75.7635 12.8006 75.9907 13.0974 76.2927 13.3465C76.5923 13.5936 77.0549 13.8525 77.6678 14.1158C78.183 14.3279 78.5673 14.5072 78.8114 14.6485C79.05 14.7871 79.2193 14.9263 79.3149 15.062C79.4079 15.1947 79.455 15.3763 79.455 15.6005C79.455 16.2388 78.977 16.5493 77.9935 16.5493C77.6287 16.5493 77.2126 16.4731 76.7567 16.323C76.3041 16.1751 75.877 15.9585 75.4902 15.6808L75.3963 15.6134V17.7915L75.4308 17.8075C75.7508 17.9553 76.1544 18.0799 76.6301 18.178C77.1049 18.2761 77.5363 18.326 77.911 18.326C79.0673 18.326 79.9985 18.0521 80.678 17.5115C81.3618 16.9672 81.7083 16.2414 81.7083 15.3537C81.7083 14.7133 81.5218 14.1642 81.1541 13.7213C80.7889 13.282 80.155 12.8787 79.2709 12.5222C78.5666 12.2395 78.1154 12.0048 77.9292 11.8247C77.7498 11.6506 77.6587 11.4045 77.6587 11.0929C77.6587 10.8166 77.7711 10.5952 78.002 10.416C78.2347 10.2359 78.5586 10.1442 78.9648 10.1442C79.3417 10.1442 79.7274 10.2038 80.1109 10.3205C80.4941 10.4372 80.8308 10.5934 81.1118 10.7846L81.2042 10.8478V8.78167L81.1687 8.76643C80.9095 8.65525 80.5676 8.56012 80.1524 8.48293C79.7391 8.40624 79.3642 8.36754 79.0381 8.36754ZM69.4988 16.4761C68.6779 16.4761 68.0303 16.2038 67.5742 15.6675C67.115 15.1284 66.8829 14.3601 66.8829 13.3835C66.8829 12.3761 67.1153 11.5877 67.5747 11.0391C68.0308 10.4942 68.6719 10.2176 69.4807 10.2176C70.2648 10.2176 70.8892 10.4818 71.3366 11.0031C71.7863 11.5272 72.0143 12.3094 72.0143 13.3285C72.0143 14.3601 71.7997 15.1526 71.3766 15.6827C70.9565 16.2088 70.3251 16.4761 69.4988 16.4761ZM69.5997 8.36754C68.0327 8.36754 66.7883 8.82658 65.9016 9.73191C65.015 10.6373 64.5652 11.8903 64.5652 13.4564C64.5652 14.9445 65.0043 16.1403 65.8699 17.012C66.7354 17.8839 67.9132 18.3256 69.3705 18.3256C70.8888 18.3256 72.1087 17.8602 72.9954 16.9423C73.8819 16.0254 74.3313 14.7843 74.3313 13.2548C74.3313 11.7441 73.9097 10.5387 73.0777 9.67287C72.2454 8.80663 71.0751 8.36754 69.5997 8.36754ZM61.1312 10.2417V8.59641H58.8964V18.0966H61.1312V13.2369C61.1312 12.4105 61.3185 11.7316 61.6882 11.2189C62.0532 10.7122 62.5396 10.4555 63.1335 10.4555C63.3348 10.4555 63.5608 10.4887 63.8055 10.5543C64.0477 10.6196 64.2231 10.6905 64.3265 10.7651L64.4205 10.8331V8.58017L64.3843 8.56463C64.1762 8.47621 63.8817 8.4316 63.5092 8.4316C62.9476 8.4316 62.4451 8.61205 62.0146 8.96732C61.6368 9.27959 61.3637 9.70775 61.1549 10.2417H61.1312ZM54.8945 8.36754C53.8692 8.36754 52.9548 8.58739 52.177 9.02076C51.3975 9.45513 50.7947 10.0753 50.3846 10.8638C49.9763 11.6504 49.769 12.5693 49.769 13.594C49.769 14.4917 49.97 15.3154 50.3673 16.0414C50.7648 16.7686 51.3274 17.3375 52.0395 17.7321C52.7507 18.1261 53.5726 18.3259 54.4826 18.3259C55.5447 18.3259 56.4514 18.1136 57.1784 17.6949L57.2078 17.678V15.6307L57.1138 15.6992C56.7845 15.9391 56.4165 16.1306 56.0205 16.2685C55.6256 16.4064 55.2655 16.4761 54.9497 16.4761C54.0728 16.4761 53.3689 16.2017 52.8579 15.6607C52.3459 15.1191 52.0862 14.3585 52.0862 13.4015C52.0862 12.4384 52.357 11.6583 52.8906 11.0826C53.4226 10.5087 54.1279 10.2176 54.9866 10.2176C55.7211 10.2176 56.4369 10.4663 57.114 10.9575L57.2078 11.0256V8.86838L57.1775 8.85134C56.9227 8.70869 56.5751 8.59089 56.1436 8.50157C55.714 8.41245 55.2937 8.36754 54.8945 8.36754ZM48.2299 8.59651H45.9952V18.0966H48.2299V8.59651ZM47.1354 4.54942C46.7676 4.54942 46.4468 4.67463 46.1833 4.92274C45.9186 5.17156 45.7844 5.48483 45.7844 5.85454C45.7844 6.21844 45.917 6.526 46.1792 6.7682C46.4396 7.00969 46.7614 7.13209 47.1355 7.13209C47.5095 7.13209 47.8325 7.00969 48.0961 6.7686C48.3613 6.526 48.4959 6.21854 48.4959 5.85454C48.4959 5.49776 48.3649 5.1877 48.107 4.93277C47.8493 4.67834 47.5223 4.54942 47.1354 4.54942ZM41.5596 7.89558V18.0966H43.8403V4.84024H40.6838L36.6717 14.6866L32.7782 4.84024H29.4932V18.0965H31.6364V7.89458H31.7099L35.8214 18.0966H37.4388L41.4861 7.89558H41.5596Z" fill="black"/>
<path d="M11.254 10.9231H0.741211V0.4104H11.254V10.9231Z" fill="black"/>
<path d="M22.8612 10.9231H12.3486V0.4104H22.8612V10.9231Z" fill="black"/>
<path d="M11.2537 22.5346H0.741211V12.022H11.2537V22.5346Z" fill="black"/>
<path d="M22.8612 22.5346H12.3486V12.022H22.8612V22.5346Z" fill="black"/>
</g>
<defs>
<clipPath id="clip0_2713_1493">
<rect width="103.63" height="22.1355" fill="white" transform="translate(0.741211 0.404785)"/>
</clipPath>
</defs>
</svg>
