<svg width="72" height="25" viewBox="0 0 72 25" fill="none" xmlns="http://www.w3.org/2000/svg">
<g clip-path="url(#clip0_2713_1491)">
<path fill-rule="evenodd" clip-rule="evenodd" d="M0.732422 0.813965V24.1286H8.09643V15.7104H13.2132L15.2024 10.6144H8.09643V5.88369H16.7454L18.6318 0.813965H0.732422ZM20.8834 0.813965L20.8703 24.1286H28.149V0.813965H20.8834ZM56.7127 16.5131L59.5166 6.80556L62.421 16.5131H56.7127ZM63.414 0.813965H55.8564L47.4765 24.1308H54.5113L55.4168 20.9956H63.6174L64.5655 24.1308H71.8158L63.414 0.813965ZM33.175 0.813965V24.1286H40.5346V15.7104H45.6459L47.6493 10.6144H40.5346V5.88369H49.1868L51.0874 0.813965H33.175Z" fill="black"/>
</g>
<defs>
<clipPath id="clip0_2713_1491">
<rect width="71.0834" height="23.3168" fill="white" transform="translate(0.732422 0.813965)"/>
</clipPath>
</defs>
</svg>
