<svg id="freepik_stories-customer-survey" xmlns="http://www.w3.org/2000/svg" viewBox="0 0 500 500" version="1.1"><style>@keyframes slideUp{0%{opacity:0;transform:translateY(30px)}to{opacity:1;transform:inherit}}@keyframes slideLeft{0%{opacity:0;transform:translateX(-30px)}to{opacity:1;transform:translateX(0)}}@keyframes lightSpeedLeft{60%{transform:skewX(-10deg);opacity:1}80%{transform:skewX(2deg)}}svg#freepik_stories-customer-survey:not(.animated) .animable{opacity:0}svg#freepik_stories-customer-survey.animated #freepik--background-complete--inject-2{animation:1s 1 forwards cubic-bezier(.36,-.01,.5,1.38) slideUp;animation-delay:0s}svg#freepik_stories-customer-survey.animated #freepik--Shadow--inject-2{animation:1s 1 forwards cubic-bezier(.36,-.01,.5,1.38) slideLeft;animation-delay:0s}svg#freepik_stories-customer-survey.animated #freepik--Character--inject-2,svg#freepik_stories-customer-survey.animated #freepik--Survey--inject-2{animation:1s 1 forwards cubic-bezier(.36,-.01,.5,1.38) lightSpeedLeft;animation-delay:0s}</style><g id="freepik--background-complete--inject-2" style="transform-origin:250px 228.23px"><path style="fill:#ebebeb;transform-origin:250px 382.525px" id="elt05h2vkc21d" d="M0 382.4h500v.25H0z"/><path style="fill:#ebebeb;transform-origin:433.34px 398.615px" id="elf920bgmlcx" d="M416.78 398.49h33.12v.25h-33.12z"/><path style="fill:#ebebeb;transform-origin:326.875px 401.335px" id="elgpjt9pde3r" d="M322.53 401.21h8.69v.25h-8.69z"/><path style="fill:#ebebeb;transform-origin:406.185px 389.335px" id="elyckewtq0vyp" d="M396.59 389.21h19.19v.25h-19.19z"/><path style="fill:#ebebeb;transform-origin:74.055px 391.015px" id="elhbdalaskdp6" d="M52.46 390.89h43.19v.25H52.46z"/><path style="fill:#ebebeb;transform-origin:107.725px 391.015px" id="elk787ersncyq" d="M104.56 390.89h6.33v.25h-6.33z"/><path style="fill:#ebebeb;transform-origin:178.31px 395.235px" id="elmuqihfvgacr" d="M131.47 395.11h93.68v.25h-93.68z"/><path d="M237 337.8H43.91a5.71 5.71 0 0 1-5.7-5.71V60.66a5.71 5.71 0 0 1 5.7-5.66H237a5.71 5.71 0 0 1 5.71 5.71v271.38a5.71 5.71 0 0 1-5.71 5.71ZM43.91 55.2a5.46 5.46 0 0 0-5.45 5.46v271.43a5.46 5.46 0 0 0 5.45 5.46H237a5.47 5.47 0 0 0 5.46-5.46V60.66A5.47 5.47 0 0 0 237 55.2Z" style="fill:#ebebeb;transform-origin:140.46px 196.4px" id="el2dj2vbd9jpp"/><path d="M453.31 337.8h-193.1a5.72 5.72 0 0 1-5.71-5.71V60.66a5.72 5.72 0 0 1 5.71-5.66h193.1a5.71 5.71 0 0 1 5.69 5.66v271.43a5.71 5.71 0 0 1-5.69 5.71ZM260.21 55.2a5.47 5.47 0 0 0-5.46 5.46v271.43a5.47 5.47 0 0 0 5.46 5.46h193.1a5.47 5.47 0 0 0 5.46-5.46V60.66a5.47 5.47 0 0 0-5.46-5.46Z" style="fill:#ebebeb;transform-origin:356.75px 196.4px" id="elokegs00qsfq"/><g id="el124dva3kkxak"><path style="fill:#e6e6e6;transform-origin:285.33px 317.035px;transform:rotate(180deg)" id="el27gb0yec8x4" d="M267.78 251.67h35.1V382.4h-35.1z"/></g><path style="fill:#f0f0f0;transform-origin:273.765px 376.515px" id="el9of8hht8zm" d="M273.62 382.4h-5.84v-11.77h11.97l-6.13 11.77z"/><g id="els6fuy14cpkp"><path style="fill:#e6e6e6;transform-origin:428.19px 317.035px;transform:rotate(180deg)" id="elog5qewl9zog" d="M410.64 251.67h35.1V382.4h-35.1z"/></g><g id="el5pb3fld31mx"><path style="fill:#f0f0f0;transform-origin:341.76px 314.775px;transform:rotate(180deg)" id="elp70k828q15h" d="M267.78 251.67h147.96v126.21H267.78z"/></g><g id="elbq64mzhm20u"><path style="fill:#e6e6e6;transform-origin:341.755px 274.565px;transform:rotate(180deg)" id="elzkgfgf3kj8" d="M272.31 257.26H411.2v34.61H272.31z"/></g><path d="M335.2 268h13.12c5.7 0 11.15-4.27 15.07-11.81h-43.26c3.92 7.56 9.37 11.81 15.07 11.81Z" style="fill:#f0f0f0;transform-origin:341.76px 262.095px" id="el6lcjlsmb6ck"/><path style="fill:#f0f0f0;transform-origin:409.755px 376.515px" id="el7ocpeteyr9w" d="M409.9 382.4h5.84v-11.77h-11.97l6.13 11.77z"/><g id="elgrh8lxehu6p"><path style="fill:#e6e6e6;transform-origin:341.755px 314.775px;transform:rotate(180deg)" id="elaijxqvtncqo" d="M272.31 297.47H411.2v34.61H272.31z"/></g><path d="M335.2 308.22h13.12c5.7 0 11.15-4.27 15.07-11.81h-43.26c3.92 7.59 9.37 11.81 15.07 11.81Z" style="fill:#f0f0f0;transform-origin:341.76px 302.315px" id="elmplc9vhhz"/><g id="elgftjt3pd2w7"><path style="fill:#e6e6e6;transform-origin:341.755px 354.975px;transform:rotate(180deg)" id="el8y4arb2wucr" d="M272.31 337.67H411.2v34.61H272.31z"/></g><path d="M335.2 348.43h13.12c5.7 0 11.15-4.27 15.07-11.81h-43.26c3.92 7.54 9.37 11.81 15.07 11.81Z" style="fill:#f0f0f0;transform-origin:341.76px 342.525px" id="elg5b1fycab7b"/><g id="elcdw5ujsins9"><path style="fill:#e6e6e6;transform-origin:145.02px 154.195px;transform:rotate(180deg)" id="elltqawsmneo" d="M78 86.38h134.04v135.63H78z"/></g><g id="elw9xoso8hwk"><path style="fill:#f0f0f0;transform-origin:139.13px 154.195px;transform:rotate(180deg)" id="elplwylroorw" d="M68.69 86.38h140.88v135.63H68.69z"/></g><g id="elhkk4kwjreo5"><path style="fill:#fff;transform-origin:139.125px 154.195px;transform:rotate(90deg)" id="elwt8gzyd2z6" d="M83.11 95.56h112.03v117.27H83.11z"/></g><path d="m138.32 113-21.52 21.56a27.81 27.81 0 0 0 0 39.28l21.52 21.53a1.13 1.13 0 0 0 1.6 0l21.53-21.53a27.81 27.81 0 0 0 0-39.28L139.93 113a1.15 1.15 0 0 0-1.61 0Zm-19.92 59.2a25.54 25.54 0 0 1 0-36.07Zm41.45 0v-36.03a25.54 25.54 0 0 1 0 36.07Z" style="fill:#f0f0f0;transform-origin:139.125px 154.187px" id="eljiatl6boye"/><path style="fill:#e6e6e6;transform-origin:367.27px 227.11px" id="elgdj08c0i2cg" d="M406.85 205h-74.89l-4.27 44.22h74.89l4.27-44.22z"/><path style="fill:#e6e6e6;transform-origin:364.98px 250.445px" id="el5qd07lwtipw" d="m402.58 249.22-.3 2.45h-74.9l.31-2.45h74.89z"/><path style="fill:#f0f0f0;transform-origin:364.965px 227.11px" id="elcy55kpiam7" d="M404.55 205h-74.89l-4.28 44.22h74.89l4.28-44.22z"/><path d="m398.76 246.34 3.13-38.34a.94.94 0 0 0-.93-1h-68.85a.94.94 0 0 0-.94.86L328 246.19a.94.94 0 0 0 .94 1h68.85a.93.93 0 0 0 .97-.85Z" style="fill:#fff;transform-origin:364.945px 227.095px" id="elgw1x7vqewvd"/><path style="fill:#f0f0f0;transform-origin:339.375px 250.445px" id="el5f3brv7palk" d="m380.76 249.22-.3 2.45h-82.47l.3-2.45h82.47z"/><g id="el8dbm4pju4l4"><path style="fill:#e6e6e6;transform-origin:350.405px 134.625px;transform:rotate(180deg)" id="el294zv4sf1lh" d="M280.09 87.88h140.63v93.49H280.09z"/></g><g id="el06dycxdircj8"><path style="fill:#f5f5f5;transform-origin:347.275px 134.625px;transform:rotate(180deg)" id="el6f426uwrdft" d="M276.96 87.88h140.63v93.49H276.96z"/></g><g id="el42qrq90ngg7"><path style="fill:#fff;transform-origin:347.28px 134.615px;transform:rotate(90deg)" id="el7531edx259b" d="M306.84 69.91h80.88v129.41h-80.88z"/></g><g id="elcybbvk9fxke"><path style="fill:#e6e6e6;transform-origin:283.75px 134.62px;transform:rotate(90deg)" id="elyfq5izjtqg" d="M243.31 133.44h80.88v2.36h-80.88z"/></g><g id="el07trw495sosp"><path style="fill:#f5f5f5;transform-origin:347.275px 160.1px;transform:rotate(180deg)" id="el979fx5u0jek" d="M279.28 155.87h135.99v8.46H279.28z"/></g><path d="M270.85 77.45h156a.87.87 0 0 1 .86.86.86.86 0 0 1-.86.86h-156a.86.86 0 0 1-.87-.86.87.87 0 0 1 .87-.86Z" style="fill:#e6e6e6;transform-origin:348.845px 78.31px" id="elqa3ewx7wj"/><path d="M267.83 78.31a2.16 2.16 0 1 0 2.17-2.16 2.16 2.16 0 0 0-2.17 2.16Z" style="fill:#e6e6e6;transform-origin:269.99px 78.31px" id="ely2rd1p7uty"/><path d="M419.55 83.15a1.17 1.17 0 0 0 1.17-1.15v-2.5a1.17 1.17 0 0 0-1.17-1.17 1.16 1.16 0 0 0-1.16 1.17V82a1.17 1.17 0 0 0 1.16 1.15Z" style="fill:#e6e6e6;transform-origin:419.555px 80.74px" id="elku27cw5nul"/><path d="M283.87 83.15A1.18 1.18 0 0 0 285 82v-2.5a1.17 1.17 0 0 0-1.17-1.17 1.16 1.16 0 0 0-1.16 1.17V82a1.17 1.17 0 0 0 1.2 1.15Z" style="fill:#e6e6e6;transform-origin:283.835px 80.7402px" id="el7q1vp6yfhlh"/><g id="el781p15fvmf7"><path style="fill:#e0e0e0;opacity:.4;transform-origin:343.195px 123.725px;transform:rotate(180deg)" id="elkkamjhs25cm" d="M271.12 78.31h144.15v90.83H271.12z"/></g><path d="M403.51 78.31a2.16 2.16 0 1 0 2.16-2.16 2.16 2.16 0 0 0-2.16 2.16Z" style="fill:#e6e6e6;transform-origin:405.67px 78.31px" id="el6het0nc32jq"/><g id="elke3iczizkkc"><path style="fill:#f0f0f0;transform-origin:205.28px 325.785px;transform:rotate(180deg)" id="elauwlbk8sosh" d="M199.5 275.65h11.56v100.27H199.5z"/></g><g id="eln4j8ylh20a"><path style="fill:#f0f0f0;transform-origin:140.36px 379.095px;transform:rotate(180deg)" id="ellqnla7vi31" d="M74.1 375.92h132.52v6.35H74.1z"/></g><path style="fill:#f5f5f5;transform-origin:134.58px 325.785px" id="eloiduq7sdg9" d="M69.66 275.65H199.5v100.27H69.66z"/><rect x="78.75" y="287.99" width="111.66" height="32.88" rx="7.12" style="fill:#f0f0f0;transform-origin:134.58px 304.43px" id="el7kqepn5ocj"/><rect x="78.75" y="330.69" width="111.66" height="32.88" rx="7.12" style="fill:#f0f0f0;transform-origin:134.58px 347.13px" id="el3p6akeo3a2z"/><path d="M110.39 306.69h48.38a2.26 2.26 0 0 0 2.26-2.25 2.27 2.27 0 0 0-2.26-2.26h-48.38a2.27 2.27 0 0 0-2.26 2.26 2.26 2.26 0 0 0 2.26 2.25Z" style="fill:#f5f5f5;transform-origin:134.58px 304.435px" id="el56rrf1a1xnn"/><path d="M110.39 349.39h48.38a2.26 2.26 0 0 0 2.26-2.25 2.27 2.27 0 0 0-2.26-2.26h-48.38a2.27 2.27 0 0 0-2.26 2.26 2.26 2.26 0 0 0 2.26 2.25Z" style="fill:#f5f5f5;transform-origin:134.58px 347.135px" id="eloe0gqch5pf"/></g><g id="freepik--Shadow--inject-2" style="transform-origin:250px 416.24px"><ellipse id="freepik--path--inject-2" cx="250" cy="416.24" rx="193.89" ry="11.32" style="fill:#f5f5f5;transform-origin:250px 416.24px"/></g><g id="freepik--Survey--inject-2" style="transform-origin:209.425px 221.35px"><path style="fill:#263238;transform-origin:207.625px 227.285px" id="el68tbchsl4hp" d="M292.85 101.45h-184.8l14.36 251.67H307.2l-14.35-251.67z"/><path style="fill:#ffc100;transform-origin:211.22px 227.285px" id="elnd210ydna37" d="M296.44 101.45h-184.8L126 353.12h184.8l-14.36-251.67z"/><g id="elxw181y8hbw8"><path d="M283.71 109.91H120.09l11.73 227.81h167.87Z" style="opacity:.5;transform-origin:209.89px 223.815px" id="el8bb3oxhrtvg"/></g><path d="M120.09 109.91c12.16 75.94 3.82 151.88 16 227.81h167.85c-12.16-75.93-3.82-151.87-16-227.81Z" style="fill:#fff;transform-origin:212.015px 223.815px" id="ela8uxzuqj867"/><g id="elaodxgjur47m"><g style="opacity:.3;transform-origin:155.012px 191.97px" id="el8evjfydgg3w"><path d="M154.41 178.17A14.47 14.47 0 0 1 168.75 192a13.14 13.14 0 0 1-13.26 13.69 14.34 14.34 0 0 1-14.21-13.77 13.23 13.23 0 0 1 3.63-9.69 13.05 13.05 0 0 1 9.5-4m-.1-2.89a15.85 15.85 0 0 0-15.93 16.63 17.31 17.31 0 0 0 17.15 16.63 16 16 0 0 0 16.12-16.63 17.47 17.47 0 0 0-17.34-16.63Z" style="fill:#ffc100;transform-origin:155.012px 191.97px" id="elppl8v7pdzwo"/></g></g><path d="M247.22 302.92h-53a2.79 2.79 0 0 0-2.82 3.1 3.51 3.51 0 0 0 3.41 3.11h53a2.77 2.77 0 0 0 2.8-3.11 3.49 3.49 0 0 0-3.39-3.1Z" style="fill:#e0e0e0;transform-origin:221.007px 306.025px" id="elcduikzwjmp"/><path d="M275.57 289.87h-82.42a2.83 2.83 0 0 0-2.87 3.1 3.4 3.4 0 0 0 3.34 3.11H276a2.83 2.83 0 0 0 2.9-3.08 3.39 3.39 0 0 0-3.33-3.13Z" style="fill:#e0e0e0;transform-origin:234.589px 292.975px" id="elehzubn9u4"/><g id="el5klzuw2h47"><g style="opacity:.3;transform-origin:156.557px 245.735px" id="eliv6ivtijcce"><path d="M156.1 232a14.26 14.26 0 0 1 14.15 13.77 13.26 13.26 0 0 1-3.69 9.69 13.1 13.1 0 0 1-9.54 4 14.35 14.35 0 0 1-14.24-13.77A13.24 13.24 0 0 1 156.1 232m0-2.9a16.09 16.09 0 0 0-16.18 16.63 17.33 17.33 0 0 0 17.22 16.64 16 16 0 0 0 16.05-16.64 17.21 17.21 0 0 0-17.09-16.63Z" style="fill:#ffc100;transform-origin:156.557px 245.735px" id="el30davghhxjq"/></g></g><path d="M217.8 188.49h-28.35a3.25 3.25 0 0 1-3.22-3.11 3 3 0 0 1 3-3.1h28.34a3.27 3.27 0 0 1 3.24 3.1 3 3 0 0 1-3.01 3.11Z" style="fill:#e0e0e0;transform-origin:203.52px 185.385px" id="el5izyp6akbuj"/><path d="M250.52 188.49h-19.2a3.26 3.26 0 0 1-3.23-3.11 3 3 0 0 1 3-3.1h19.21a3.26 3.26 0 0 1 3.23 3.1 3 3 0 0 1-3.01 3.11Z" style="fill:#e0e0e0;transform-origin:240.81px 185.385px" id="elus3hx2xr7l"/><path d="M266 201.54h-76.1a3.23 3.23 0 0 1-3.21-3.11 3 3 0 0 1 3-3.1h76.09a3.22 3.22 0 0 1 3.2 3.1 3 3 0 0 1-2.98 3.11Z" style="fill:#e0e0e0;transform-origin:227.835px 198.435px" id="elodkkfmohgaq"/><g id="el21mn4bsk55x"><g style="opacity:.3;transform-origin:159.336px 299.499px" id="elnd3dvf5xa4"><path d="M158.27 285.76a15.16 15.16 0 0 1 14.8 13.78 12.65 12.65 0 0 1-3.11 9.68 12.21 12.21 0 0 1-9.26 4 15.44 15.44 0 0 1-15.1-13.77 12.48 12.48 0 0 1 3.26-9.69 12.66 12.66 0 0 1 9.41-4m-.14-2.89a15.2 15.2 0 0 0-15.43 16.63c.77 9.18 9.1 16.63 18.28 16.63s15.76-7.45 15-16.63a18.24 18.24 0 0 0-17.84-16.63Z" style="fill:#ffc100;transform-origin:159.336px 299.499px" id="eljsyil755wod"/></g></g><path d="M279 249.13h-87.81a3 3 0 0 0-3 3.1 3.24 3.24 0 0 0 3.21 3.1h87.85a3 3 0 0 0 3-3.1 3.22 3.22 0 0 0-3.25-3.1Z" style="fill:#e0e0e0;transform-origin:235.22px 252.23px" id="els6iytjngbrk"/><path d="M258.19 236.07h-67.38a3 3 0 0 0-3 3.11 3.21 3.21 0 0 0 3.19 3.1h67.39a3 3 0 0 0 3-3.1 3.2 3.2 0 0 0-3.2-3.11Z" style="fill:#e0e0e0;transform-origin:224.6px 239.175px" id="elovrcqxy2uho"/><path d="m155.93 201.72-1.18-1.94c-2.59-4.23-8-8-9.86-9.11l1.4-2.48a38.24 38.24 0 0 1 9.68 8.36c4.25-5.71 10.46-11.58 18.87-17.92l1.81 2.34c-9 6.77-15.38 13-19.47 18.93-.41.61-.83 1.22-1.25 1.82Z" style="fill:#ffc100;transform-origin:160.77px 190.175px" id="elmxxro2mfamm"/><path d="M157.43 255.52c-.39-.65-.79-1.3-1.19-1.94-2.6-4.23-8-8-9.84-9.12l1.42-2.48a38.34 38.34 0 0 1 9.63 8.36c4.26-5.7 10.52-11.58 19.06-17.92l1.77 2.34c-9.12 6.77-15.54 13-19.61 18.93Z" style="fill:#ffc100;transform-origin:162.34px 243.97px" id="eln7ee9qo84x"/><path d="m160.86 309.44-1.32-1.94c-2.88-4.23-8.46-8-10.38-9.11l1.3-2.48a42.05 42.05 0 0 1 10.09 8.35c3.92-5.7 9.88-11.58 18.16-17.91l1.87 2.34c-8.84 6.77-14.91 13-18.6 18.93Z" style="fill:#ffc100;transform-origin:164.87px 297.895px" id="el0vgc6dg2ioys"/><path d="M224.1 129q-2.64 5.76-5.41 11.51a24.75 24.75 0 0 1 13.64 20.08h13.29C244.74 147 236 135.17 224.1 129Z" style="fill:#ffc100;transform-origin:232.155px 144.795px" id="el3u8xtq0hghj"/><path d="M173.47 160.61h13.29a21.17 21.17 0 0 1 9.24-19.37q-3.88-5.76-7.88-11.52c-9.7 6.28-15.5 17.79-14.65 30.89Z" style="fill:#263238;transform-origin:184.694px 145.165px" id="elcpx4erpsis"/><path d="M206.12 124.54a32.74 32.74 0 0 0-18 5.18q4 5.76 7.88 11.52a21 21 0 0 1 11.66-3.42 24.25 24.25 0 0 1 11 2.71q2.76-5.76 5.41-11.51a39.2 39.2 0 0 0-17.95-4.48Z" style="fill:#ffc100;transform-origin:206.095px 132.889px" id="elt965ka2s41b"/><g id="elrjhnjp5wys"><path d="M206.12 124.54a32.74 32.74 0 0 0-18 5.18q4 5.76 7.88 11.52a21 21 0 0 1 11.66-3.42 24.25 24.25 0 0 1 11 2.71q2.76-5.76 5.41-11.51a39.2 39.2 0 0 0-17.95-4.48Z" style="fill:#263238;opacity:.5;transform-origin:206.095px 132.889px" id="elgaw9y5scu8h"/></g><path d="M222.36 151.51S208.94 157 207.52 158a3.19 3.19 0 0 0-.57 4.53 3.35 3.35 0 0 0 4.58.87c1.47-1.06 10.85-11.89 10.83-11.89Zm-14.1 10a1.57 1.57 0 0 1 .28-2.23 1.67 1.67 0 0 1 2.26.43 1.57 1.57 0 0 1-.28 2.23 1.67 1.67 0 0 1-2.26-.39Z" style="fill:#263238;transform-origin:214.308px 157.731px" id="elcdbt028m16s"/><path d="M238.27 145.16a4.26 4.26 0 0 1-4.32 4.72 5.25 5.25 0 0 1-5.12-4.72 4.23 4.23 0 0 1 4.28-4.71 5.28 5.28 0 0 1 5.16 4.71Z" style="fill:#fff;transform-origin:233.549px 145.165px" id="el1pof2q2khyr"/><path d="M232.42 144.08a.68.68 0 0 1-.68.75.83.83 0 0 1-.82-.75.67.67 0 0 1 .68-.75.83.83 0 0 1 .82.75Z" style="fill:#263238;transform-origin:231.669px 144.08px" id="elgoxofu956v6"/><path d="M236 144.08a.68.68 0 0 1-.69.75.85.85 0 0 1-.82-.75.67.67 0 0 1 .69-.75.83.83 0 0 1 .82.75Z" style="fill:#263238;transform-origin:235.244px 144.08px" id="elg41gv9f15jh"/><path d="M233.77 148a4 4 0 0 1-2.67-1.05.37.37 0 0 1 0-.52.36.36 0 0 1 .52 0 3.25 3.25 0 0 0 2.17.86 2.66 2.66 0 0 0 2-.84.37.37 0 1 1 .54.51 3.38 3.38 0 0 1-2.56 1.04Z" style="fill:#263238;transform-origin:233.712px 147.161px" id="elohwgu0q2cf"/><path d="M211.62 131.1a4.15 4.15 0 0 1-4.2 4.72 5.41 5.41 0 0 1-5.24-4.72 4.1 4.1 0 0 1 4.16-4.71 5.46 5.46 0 0 1 5.28 4.71Z" style="fill:#fff;transform-origin:206.897px 131.105px" id="ely2cq8d0igt9"/><path d="M205.74 130a.66.66 0 0 1-.66.75.87.87 0 0 1-.84-.75.65.65 0 0 1 .66-.75.86.86 0 0 1 .84.75Z" style="fill:#263238;transform-origin:204.989px 130px" id="elkwzumrco55h"/><path d="M209.31 130a.66.66 0 0 1-.67.75.88.88 0 0 1-.84-.75.66.66 0 0 1 .67-.75.87.87 0 0 1 .84.75Z" style="fill:#263238;transform-origin:208.555px 130px" id="elg3iqx26r2gn"/><path d="M209.41 133h-4.68a.38.38 0 0 1 0-.75h4.68a.38.38 0 0 1 0 .75Z" style="fill:#263238;transform-origin:207.07px 132.625px" id="el7d0vyid26ax"/><path d="M187.87 145.16a4.26 4.26 0 0 1-4.32 4.72 5.25 5.25 0 0 1-5.12-4.72 4.23 4.23 0 0 1 4.28-4.71 5.29 5.29 0 0 1 5.16 4.71Z" style="fill:#fff;transform-origin:183.149px 145.165px" id="el2yh3i33fehr"/><path d="M182 144.08a.68.68 0 0 1-.68.75.83.83 0 0 1-.82-.75.67.67 0 0 1 .68-.75.83.83 0 0 1 .82.75Z" style="fill:#263238;transform-origin:181.249px 144.08px" id="elwz8gkodhewo"/><path d="M185.58 144.08a.67.67 0 0 1-.68.75.85.85 0 0 1-.82-.75.67.67 0 0 1 .68-.75.82.82 0 0 1 .82.75Z" style="fill:#263238;transform-origin:184.83px 144.08px" id="elysrg06wf4s"/><path d="M181 148a.35.35 0 0 1-.25-.1.37.37 0 0 1 0-.52 3.43 3.43 0 0 1 2.53-1.08 4 4 0 0 1 2.67 1.06.36.36 0 0 1 0 .52.39.39 0 0 1-.53 0 3.2 3.2 0 0 0-2.18-.86 2.68 2.68 0 0 0-2 .83.39.39 0 0 1-.24.15Z" style="fill:#263238;transform-origin:183.352px 147.15px" id="elujvlvk15b7g"/><path d="M256.74 110.56c-3.12-6.57-10.4-10.92-18.25-10.92h-16a6.24 6.24 0 0 1-5.55-2.9c-2.23-4.18-7.55-7.16-13.59-7.16s-11 3-12.76 7.16c-.73 1.76-2.82 2.9-5.22 2.9h-16c-7.85 0-14.64 4.35-17 10.92a1.62 1.62 0 0 0-.1.72 2 2 0 0 0 2 1.9h100.88a1.79 1.79 0 0 0 1.59-2.62ZM204 101.45a4.78 4.78 0 0 1-4.67-4.45 4.16 4.16 0 0 1 4.2-4.45 4.77 4.77 0 0 1 4.71 4.45 4.16 4.16 0 0 1-4.24 4.45Z" style="fill:#263238;transform-origin:204.604px 101.38px" id="elk89tv3llbd"/></g><g id="freepik--Character--inject-2" style="transform-origin:329.97px 264.56px"><path d="M360.42 409.11a3.2 3.2 0 0 1-2.22-.55.69.69 0 0 1-.07-.76.74.74 0 0 1 .51-.41c1.18-.33 3.91 1.13 4 1.2a.17.17 0 0 1 .1.18.15.15 0 0 1-.12.14 12.92 12.92 0 0 1-2.2.2Zm-1.32-1.42a1.11 1.11 0 0 0-.33 0 .45.45 0 0 0-.32.24c-.1.22 0 .33 0 .39.4.47 2.26.48 3.6.29a8.65 8.65 0 0 0-2.95-.92Z" style="fill:#ffc100;transform-origin:360.395px 408.238px" id="elhqbch3qy1pg"/><path d="M362.62 408.91h-.07c-.93-.4-2.87-2-2.83-2.82 0-.2.12-.44.6-.49a1.42 1.42 0 0 1 1 .3 5.65 5.65 0 0 1 1.46 2.83.18.18 0 0 1 0 .16.17.17 0 0 1-.16.02Zm-2.13-3h-.1c-.31 0-.32.15-.32.19 0 .5 1.31 1.75 2.28 2.29a4.66 4.66 0 0 0-1.23-2.26 1 1 0 0 0-.63-.2Z" style="fill:#ffc100;transform-origin:361.259px 407.258px" id="elcdroq4tepg"/><path style="fill:#ffc3bd;transform-origin:365.69px 400.23px" id="el37zozi9e7b" d="M370.68 408.74h-7.35l-2.63-17.02h7.35l2.63 17.02z"/><path d="M363.28 407.89h8a.74.74 0 0 1 .68.5l2.18 6.53a1 1 0 0 1-.91 1.3c-2.9 0-7.1-.21-10.74-.21-4.25 0-3.87.23-8.86.23-3 0-4.19-3.05-3-3.33 5.61-1.25 6.26-1.39 10.88-4.45a3.09 3.09 0 0 1 1.77-.57Z" style="fill:#263238;transform-origin:362.18px 412.065px" id="elm4zsr5ztfwl"/><g id="elb2l66jekoj9"><path style="opacity:.2;transform-origin:365.055px 396.115px" id="eley5ysv3uza4" d="m360.7 391.73 1.36 8.77h7.35l-1.36-8.77h-7.35z"/></g><path d="m369.84 225.45-5 5.05 7.66 2.71s3-4.12.89-6.94Z" style="fill:#ffc3bd;transform-origin:369.491px 229.33px" id="eln0hhibmkd5d"/><path style="fill:#ffc3bd;transform-origin:367.84px 234.59px" id="elbjub73uj5y" d="m363.16 237.56 7.65 1.12 1.71-5.47-7.66-2.71-1.7 7.06z"/><path d="M373.18 163.27c.65 1.4 1.17 2.59 1.69 3.89s1 2.55 1.5 3.83c.95 2.57 1.8 5.19 2.59 7.84a82.8 82.8 0 0 1 2 8.15l.38 2.1.31 2.14c.11.71.18 1.45.24 2.18s.16 1.39.16 2.31v2.45l-.06 1.13-.11 1.07c-.13 1.44-.32 2.79-.5 4.16-.4 2.7-.86 5.34-1.37 8-1.06 5.23-2.22 10.34-3.62 15.49l-9.11-1.8c.58-5.08 1.18-10.24 1.66-15.32.23-2.54.48-5.07.62-7.55.06-1.22.13-2.46.13-3.63v-2.5l-.07-.66a15 15 0 0 0-.22-1.57c-.09-.56-.17-1.12-.3-1.69l-.37-1.71-.43-1.72c-.62-2.3-1.32-4.61-2.12-6.92s-1.69-4.61-2.63-6.89c-.46-1.15-.94-2.29-1.44-3.41s-1-2.29-1.49-3.26Z" style="fill:#263238;transform-origin:371.335px 195.64px" id="elx8epnbl9hof"/><path d="M338.65 221.87s1.22 56.24 4.52 78.64c3.44 23.3 16 98.29 16 98.29h12.44s-4.46-71.37-5.88-94.3c-1.55-25-1.21-82.63-1.21-82.63Z" style="fill:#ffc100;transform-origin:355.13px 310.335px" id="eluj6bdk9kj2f"/><path d="M356.18 393.84c-.06 0 1.28 5.17 1.28 5.17h15.14l-.11-4.61Z" style="fill:#263238;transform-origin:364.389px 396.425px" id="elmjqp9g1tda"/><g id="elxkzb4bgnn5d"><ellipse cx="335.11" cy="130.65" rx="1.13" ry=".74" style="fill:#263238;transform-origin:335.11px 130.65px;transform:rotate(-86.48deg)" id="el4v5092nies8"/></g><path d="M335.54 131.78a23.2 23.2 0 0 1-3.16 5.32 3.52 3.52 0 0 0 2.95.56Z" style="fill:#ed847e;transform-origin:333.96px 134.776px" id="el5zicalna7rk"/><path d="M338.18 127.2a.43.43 0 0 1-.22-.06 2.82 2.82 0 0 0-2.57-.48.36.36 0 0 1-.47-.21.37.37 0 0 1 .23-.47 3.55 3.55 0 0 1 3.26.56.37.37 0 0 1 .07.51.38.38 0 0 1-.3.15Z" style="fill:#263238;transform-origin:336.726px 126.503px" id="el9b5klyxkvmf"/><path d="M355.3 137.52c-1.24 5.38-2.64 15.23 1 18.81 0 0-1.66 5.45-11.65 5.45-11 0-5.05-5.45-5.05-5.45 6-1.43 6.05-5.87 5.15-10.05Z" style="fill:#ffc3bd;transform-origin:347.147px 149.65px" id="elyto1uh1nvk"/><path d="M360.17 158.85c1.08-2.19 2.27-4.71 0-5.49-2.48-.87-16.19-1.75-21-.13a5 5 0 0 0-3.61 6.08Z" style="fill:#ffc100;transform-origin:348.434px 155.818px" id="elnnj9qignnd"/><path d="M370.69 158.44c6.33 2.92 9.55 25.06 9.55 25.06l-12.75 4a129.49 129.49 0 0 1-5.53-18c-1.96-9.24 2.25-14.04 8.73-11.06Z" style="fill:#263238;transform-origin:370.858px 172.529px" id="el7txjl7f9b73"/><path d="m292.33 192.89-5.88-5.06-5.29 7.7s4.75 3.81 10 2.25Z" style="fill:#ffc3bd;transform-origin:286.745px 192.993px" id="eltrjpyywx61"/><path style="fill:#ffc3bd;transform-origin:282.17px 190.455px" id="elv1628offnoi" d="m278.7 185.38-.81 7.61 3.27 2.54 5.29-7.7-7.75-2.45z"/><path d="M356.65 129.33c-.74 7.64-.79 12.14-4.79 16.06a10 10 0 0 1-16.86-5.23c-1.4-6.86 0-18.2 7.63-21.24a10.09 10.09 0 0 1 14.02 10.41Z" style="fill:#ffc3bd;transform-origin:345.617px 133.19px" id="el5pjgh40gt8t"/><path d="M341 131.78c-.67-5.28-.56-7.28 2.26-8.45-2.93-.58-5.47-.66-6.68-2.37s-1.5-6.08 4.38-8.08c-.54 1 1.17 3.08 6.58 1.2s13.29-2.08 14 3.42c2.86-1 7.65 7.83 2 14.28-4.71 5.4-7.85 9.13-8.78 12a1 1 0 0 1-1.37.6c-1.95-.91-5.44-.13-7 .29a1 1 0 0 1-1.14-.51c-1.01-2.08-3.74-8.02-4.25-12.38Z" style="fill:#263238;transform-origin:351.02px 128.791px" id="elplsogujg2r"/><path d="M360.48 118.17s2.32-3.27 6.77-.84a20.16 20.16 0 0 0-6.77.84Z" style="fill:#263238;transform-origin:363.865px 117.301px" id="elnoczyocdflq"/><path d="M360.86 118.87s3.23-2 .71-5.77a14.53 14.53 0 0 1-.71 5.77Z" style="fill:#263238;transform-origin:361.696px 115.985px" id="elbk5dr9g3rxl"/><path d="M344.74 132a9.15 9.15 0 0 1-2.68 4.95c-1.85 1.75-3.45.51-3.5-1.74-.05-2 .85-5.38 3-6.28s3.56.81 3.18 3.07Z" style="fill:#ffc3bd;transform-origin:341.68px 133.231px" id="el91waint5mk6"/><g id="el3zr0j9e4xuf"><path d="M339.68 253.12c.72 16.78 1.85 36.26 3.49 47.39.63 4.24 1.55 10.18 2.65 17.07 4.42-24.12 7.06-55.2-6.14-64.46Z" style="opacity:.3;transform-origin:344.552px 285.35px" id="el0b3tw5e0852p"/></g><path d="M334.17 409.11c-.94 0-1.85-.13-2.14-.55a.68.68 0 0 1 0-.76 1 1 0 0 1 .57-.41c1.23-.33 3.75 1.13 3.86 1.2a.15.15 0 0 1 .07.18.18.18 0 0 1-.14.14 13.43 13.43 0 0 1-2.22.2Zm-1.11-1.42a1.18 1.18 0 0 0-.34 0 .53.53 0 0 0-.35.24c-.13.22-.09.33-.05.39.33.47 2.18.48 3.56.29a7.61 7.61 0 0 0-2.82-.92Z" style="fill:#ffc100;transform-origin:334.226px 408.226px" id="el44dwcn967sy"/><path d="M336.4 408.91h-.07c-.87-.4-2.58-2-2.41-2.82 0-.2.18-.44.66-.49a1.29 1.29 0 0 1 1 .3c.91.77 1 2.75 1 2.83a.21.21 0 0 1-.08.16.19.19 0 0 1-.1.02Zm-1.69-3h-.1c-.32 0-.34.15-.35.19-.1.5 1.05 1.75 1.94 2.29a4 4 0 0 0-.89-2.26.92.92 0 0 0-.6-.2Z" style="fill:#ffc100;transform-origin:335.244px 407.25px" id="el4usx556y41f"/><path style="fill:#ffc3bd;transform-origin:340.74px 400.23px" id="eldeuxa8e2o1" d="M344.48 408.74h-7.34l-.14-17.02h7.35l.13 17.02z"/><path d="M337.21 407.89h8a.6.6 0 0 1 .6.5l1.23 6.53a1.11 1.11 0 0 1-1.11 1.3c-2.89 0-7.07-.21-10.7-.21-4.26 0-7.94.23-12.93.23-3 0-3.74-3.05-2.47-3.33 5.79-1.25 10.49-1.39 15.56-4.45a3.57 3.57 0 0 1 1.82-.57Z" style="fill:#263238;transform-origin:333.146px 412.065px" id="elfbuv2tzwte9"/><g id="el1t082ja989w"><path style="opacity:.2;transform-origin:340.715px 396.115px" id="elrlvuro3wvt" d="m337.01 391.73.06 8.77h7.35l-.06-8.77h-7.35z"/></g><path d="M325.54 221.87s-3 54.93-2.94 77.33c0 23.3 11.8 99.6 11.8 99.6h12.44S343.6 323.86 345 301c1.49-25 8.71-79.11 8.71-79.11Z" style="fill:#ffc100;transform-origin:338.155px 310.335px" id="elr3u84z9n0jf"/><path d="M332.18 393.84c-.06 0 .51 5.17.51 5.17h15.14l.58-4.61Z" style="fill:#263238;transform-origin:340.293px 396.425px" id="el9gryfne8bzc"/><path d="M328.22 158.37s-12.52 31.63-7.07 86.3h45.72c.48-6-4.3-58.26 2.52-86.68a101.36 101.36 0 0 0-13.1-1.66 145.28 145.28 0 0 0-16.7 0 74.84 74.84 0 0 0-11.37 2.04Z" style="fill:#263238;transform-origin:344.583px 200.38px" id="eliup2xymo1u"/><g id="el4vp7wqv57t3"><path d="M321.75 187c-.68 5-1.24 10.71-1.6 17 8.88-8.16 11.92-28.49 11.92-28.49Z" style="opacity:.2;transform-origin:326.11px 189.755px" id="elizm23v09vd"/></g><path d="M332.93 173.43c-1.8 4.68-3.62 9.19-5.62 13.72s-4.07 9-6.4 13.48l-.91 1.67-.46.84c-.19.34-.17.36-.69 1.23a9.78 9.78 0 0 1-3.61 3.36 10.76 10.76 0 0 1-3.91 1.18 16.46 16.46 0 0 1-5.6-.45 31 31 0 0 1-4.24-1.38 55.15 55.15 0 0 1-7.17-3.6c-1.13-.65-2.21-1.35-3.28-2s-2.04-1.48-3.19-2.28l5.4-8.28a70.26 70.26 0 0 0 12.15 5.27 18.34 18.34 0 0 0 2.73.62 3.84 3.84 0 0 0 1.6 0c.06 0-.13-.06-.46.11a2.69 2.69 0 0 0-1 .88c-.21.35.06-.17.15-.37l.36-.79.72-1.57c1.9-4.24 3.66-8.63 5.37-13s3.37-8.93 4.9-13.34Z" style="fill:#263238;transform-origin:310.39px 188.854px" id="elpr0u9s7xbnc"/><path d="M337.9 161.69c2.34 6.54-14.22 32.87-14.22 32.87l-9.82-9.73s2.51-8.27 5.82-18.23c3.26-9.79 15.99-11.16 18.22-4.91Z" style="fill:#263238;transform-origin:325.993px 176.229px" id="elouzzh4aei8o"/></g><defs><filter id="active" height="200%"><feMorphology in="SourceAlpha" result="DILATED" operator="dilate" radius="2"/><feFlood flood-color="#32DFEC" flood-opacity="1" result="PINK"/><feComposite in="PINK" in2="DILATED" operator="in" result="OUTLINE"/><feMerge><feMergeNode in="OUTLINE"/><feMergeNode in="SourceGraphic"/></feMerge></filter><filter id="hover" height="200%"><feMorphology in="SourceAlpha" result="DILATED" operator="dilate" radius="2"/><feFlood flood-color="red" flood-opacity=".5" result="PINK"/><feComposite in="PINK" in2="DILATED" operator="in" result="OUTLINE"/><feMerge><feMergeNode in="OUTLINE"/><feMergeNode in="SourceGraphic"/></feMerge><feColorMatrix values="0 0 0 0 0 0 1 0 0 0 0 0 0 0 0 0 0 0 1 0"/></filter></defs></svg>